<?xml version="1.0" encoding="UTF-8" standalone="no"?>
<!-- Generator: Adobe Illustrator 19.0.0, SVG Export Plug-In . SVG Version: 6.00 Build 0)  -->

<svg
   xmlns:dc="http://purl.org/dc/elements/1.1/"
   xmlns:cc="http://creativecommons.org/ns#"
   xmlns:rdf="http://www.w3.org/1999/02/22-rdf-syntax-ns#"
   xmlns:svg="http://www.w3.org/2000/svg"
   xmlns="http://www.w3.org/2000/svg"
   xmlns:sodipodi="http://sodipodi.sourceforge.net/DTD/sodipodi-0.dtd"
   xmlns:inkscape="http://www.inkscape.org/namespaces/inkscape"
   version="1.1"
   id="Layer_1"
   x="0px"
   y="0px"
   viewBox="0 0 31.999998 32"
   xml:space="preserve"
   sodipodi:docname="tree.svg"
   inkscape:version="0.92.4 (5da689c313, 2019-01-14)"
   width="31.999998"
   height="32"><metadata
   id="metadata3801"><rdf:RDF><cc:Work
       rdf:about=""><dc:format>image/svg+xml</dc:format><dc:type
         rdf:resource="http://purl.org/dc/dcmitype/StillImage" /><dc:title /></cc:Work></rdf:RDF></metadata><defs
   id="defs3799" /><sodipodi:namedview
   pagecolor="#ffffff"
   bordercolor="#666666"
   borderopacity="1"
   objecttolerance="10"
   gridtolerance="10"
   guidetolerance="10"
   inkscape:pageopacity="0"
   inkscape:pageshadow="2"
   inkscape:window-width="1500"
   inkscape:window-height="1004"
   id="namedview3797"
   showgrid="false"
   inkscape:zoom="2.9083284"
   inkscape:cx="75.095909"
   inkscape:cy="32.149063"
   inkscape:window-x="45"
   inkscape:window-y="87"
   inkscape:window-maximized="0"
   inkscape:current-layer="Layer_1" />
<g
   id="g3764"
   transform="matrix(0.10887464,0,0,0.10859569,-0.04104574,0)">
	<g
   id="g3762">
		<path
   style="fill:#333333"
   d="M 245.102,264.131 C 236.341,249.529 231.71,232.804 231.71,215.775 v -24.23 h 62.583 L 249.176,144.67 h 35.058 L 247.32,102.482 h 22.167 l -29.466,-37.5 h 9.609 L 208.273,0 166.925,64.983 h 9.609 l -5.611,7.144 7.369,5.789 17.531,-22.308 h -11.822 l 24.272,-38.142 24.277,38.142 h -11.822 l 29.466,37.5 h -23.536 l 36.914,42.188 h -36.427 l 45.117,46.875 H 231.71 198.897 v 9.375 h 23.438 v 24.23 c 0,16.022 3.731,31.8 10.842,46.083 h -49.805 c 7.106,-14.283 10.838,-30.061 10.838,-46.083 v -5.48 h -9.375 v 5.48 c 0,15.731 -3.998,31.181 -11.513,44.962 -1.655,-7.031 -2.55,-14.245 -2.55,-21.525 v -33.605 h -46.875 v 33.605 c 0,7.28 -0.895,14.494 -2.55,21.525 -7.514,-13.781 -11.513,-29.231 -11.513,-44.962 v -5.48 h -9.375 v 5.48 c 0,16.022 3.731,31.8 10.842,46.083 H 61.498 c 7.106,-14.283 10.838,-30.061 10.838,-46.083 v -24.23 h 23.438 v -9.375 H 62.96 22.418 L 67.535,135.296 H 31.104 L 68.018,93.108 H 44.482 l 29.466,-37.5 H 62.126 L 86.398,17.466 110.675,55.608 H 98.852 l 17.531,22.308 7.369,-5.789 -5.616,-7.144 h 9.609 L 86.398,0 45.049,64.983 h 9.609 l -29.466,37.5 H 47.36 L 10.446,144.67 H 45.504 L 0.377,191.545 H 62.96 v 24.23 c 0,17.03 -4.631,33.755 -13.392,48.356 l -4.261,7.102 h 72.938 c -2.048,5.658 -4.622,11.137 -7.739,16.336 l -4.261,7.102 h 82.177 l -4.256,-7.102 c -3.122,-5.203 -5.691,-10.683 -7.739,-16.336 h 72.938 z m -122.667,21.164 c 7.106,-14.283 10.838,-30.061 10.838,-46.083 v -24.23 h 28.125 v 24.23 c 0,16.022 3.731,31.8 10.842,46.083 z"
   id="path3758"
   inkscape:connector-curvature="0" />
		<path
   style="fill:#f9ba48"
   d="M 231.71,214.983 H 62.96 l 42.188,-46.875 H 72.335 l 37.5,-42.188 H 86.126 l 28.397,-37.5 h -9.375 l 42.188,-65.625 42.188,65.625 h -9.375 l 28.397,37.5 h -23.709 l 37.5,42.188 h -32.813 z"
   id="path3760"
   inkscape:connector-curvature="0" />
	</g>
</g>
<g
   id="g3766"
   transform="translate(-72.239586,-147.48456)">
</g>
<g
   id="g3768"
   transform="translate(-72.239586,-147.48456)">
</g>
<g
   id="g3770"
   transform="translate(-72.239586,-147.48456)">
</g>
<g
   id="g3772"
   transform="translate(-72.239586,-147.48456)">
</g>
<g
   id="g3774"
   transform="translate(-72.239586,-147.48456)">
</g>
<g
   id="g3776"
   transform="translate(-72.239586,-147.48456)">
</g>
<g
   id="g3778"
   transform="translate(-72.239586,-147.48456)">
</g>
<g
   id="g3780"
   transform="translate(-72.239586,-147.48456)">
</g>
<g
   id="g3782"
   transform="translate(-72.239586,-147.48456)">
</g>
<g
   id="g3784"
   transform="translate(-72.239586,-147.48456)">
</g>
<g
   id="g3786"
   transform="translate(-72.239586,-147.48456)">
</g>
<g
   id="g3788"
   transform="translate(-72.239586,-147.48456)">
</g>
<g
   id="g3790"
   transform="translate(-72.239586,-147.48456)">
</g>
<g
   id="g3792"
   transform="translate(-72.239586,-147.48456)">
</g>
<g
   id="g3794"
   transform="translate(-72.239586,-147.48456)">
</g>
</svg>