<?xml version="1.0" encoding="UTF-8" standalone="no"?>
<!-- Generator: Adobe Illustrator 19.0.0, SVG Export Plug-In . SVG Version: 6.00 Build 0)  -->

<svg
   xmlns:dc="http://purl.org/dc/elements/1.1/"
   xmlns:cc="http://creativecommons.org/ns#"
   xmlns:rdf="http://www.w3.org/1999/02/22-rdf-syntax-ns#"
   xmlns:svg="http://www.w3.org/2000/svg"
   xmlns="http://www.w3.org/2000/svg"
   xmlns:sodipodi="http://sodipodi.sourceforge.net/DTD/sodipodi-0.dtd"
   xmlns:inkscape="http://www.inkscape.org/namespaces/inkscape"
   version="1.1"
   id="Layer_1"
   x="0px"
   y="0px"
   viewBox="0 0 48 40"
   xml:space="preserve"
   sodipodi:docname="detox.svg"
   width="48"
   height="40"
   inkscape:version="0.92.4 (5da689c313, 2019-01-14)"><metadata
   id="metadata4558"><rdf:RDF><cc:Work
       rdf:about=""><dc:format>image/svg+xml</dc:format><dc:type
         rdf:resource="http://purl.org/dc/dcmitype/StillImage" /></cc:Work></rdf:RDF></metadata><defs
   id="defs4556" /><sodipodi:namedview
   pagecolor="#ffffff"
   bordercolor="#666666"
   borderopacity="1"
   objecttolerance="10"
   gridtolerance="10"
   guidetolerance="10"
   inkscape:pageopacity="0"
   inkscape:pageshadow="2"
   inkscape:window-width="1132"
   inkscape:window-height="816"
   id="namedview4554"
   showgrid="false"
   inkscape:zoom="7.375"
   inkscape:cx="25.210986"
   inkscape:cy="17.106898"
   inkscape:window-x="85"
   inkscape:window-y="157"
   inkscape:window-maximized="0"
   inkscape:current-layer="Layer_1" />
<g
   transform="matrix(0.09375,0,0,0.09062481,0.09375,-3.1094052)"
   id="g4521">
	<g
   id="g4519">
		<path
   d="m 378.586,210.862 c -6.321,0 -12.641,0.518 -18.911,1.516 17.794,-22.967 27.738,-51.343 27.738,-80.964 0.883,-36.193 -13.241,-69.738 -39.724,-93.572 -3.531,-3.531 -8.828,-3.531 -12.359,0 -3.531,3.531 -3.531,8.828 0,12.359 22.069,21.186 33.545,50.317 33.545,81.214 -0.734,25.684 -8.796,49.534 -24.17,69.53 -20.998,-26.267 -53.324,-43.047 -89.706,-43.047 -36.713,0 -69.302,17.084 -90.283,43.764 -34.947,-47.365 -32.69,-113.102 8.186,-152.344 3.531,-3.531 3.531,-8.828 0,-12.359 -3.531,-3.531 -8.828,-3.531 -12.359,0 -46.627,44.991 -50.039,121.056 -9.55,175.522 -6.49,-1.07 -13.035,-1.619 -19.581,-1.619 C 58.145,210.862 -1,270.007 -1,343.276 c 0,5.297 3.531,8.828 8.828,8.828 5.297,0 8.828,-3.531 8.828,-8.828 0,-63.559 51.2,-114.759 114.759,-114.759 5.674,0 11.348,0.509 16.97,1.481 -5.252,13.177 -8.143,27.567 -8.143,42.657 0,57.991 42.625,105.685 98.368,113.598 -16.356,42.483 -57.588,71.782 -107.196,71.782 -5.297,0 -8.828,3.531 -8.828,8.828 0,5.297 3.531,8.828 8.828,8.828 57.005,0 104.614,-33.914 123.586,-82.886 18.972,48.972 66.581,82.886 123.586,82.886 5.297,0 8.828,-3.531 8.828,-8.828 0,-5.297 -3.531,-8.828 -8.828,-8.828 -49.758,0 -91.088,-29.477 -107.342,-71.761 55.815,-7.85 98.514,-55.577 98.514,-113.618 0,-15.119 -2.902,-29.535 -8.174,-42.733 5.632,-0.928 11.316,-1.405 17.001,-1.405 63.559,0 114.759,51.2 114.759,114.759 0,5.297 3.531,8.828 8.828,8.828 5.297,0 8.828,-3.531 8.828,-8.828 0,-73.27 -59.145,-132.415 -132.414,-132.415 z M 255,175.552 c 31.915,0 60.108,15.196 77.781,38.785 -4.81,4.867 -10.149,9.182 -15.871,12.945 -2.707,1.5 -5.377,3.094 -8.003,4.788 -7.167,3.875 -14.766,6.964 -22.538,9.281 -7.947,-7.964 -18.994,-12.833 -31.369,-12.833 -0.142,0 -0.281,0.009 -0.422,0.01 -0.154,-0.001 -0.305,-0.01 -0.46,-0.01 -11.476,0 -22.952,4.414 -30.897,13.241 -5.808,-1.584 -11.453,-3.651 -16.852,-6.112 -6.462,-4.589 -13.215,-8.585 -20.182,-11.945 -3.475,-2.611 -6.731,-5.398 -9.721,-8.336 17.618,-24.174 46.158,-39.814 78.534,-39.814 z m 0,123.586 c -0.69,0 -1.369,-0.032 -2.043,-0.08 -0.733,-0.325 -1.524,-0.591 -2.371,-0.803 -8.268,-1.102 -14.814,-5.647 -18.566,-12.129 -0.009,-0.016 -0.018,-0.032 -0.027,-0.048 -0.35,-0.608 -0.673,-1.234 -0.973,-1.875 -0.054,-0.117 -0.103,-0.236 -0.156,-0.354 -0.227,-0.505 -0.437,-1.02 -0.632,-1.542 -0.068,-0.182 -0.137,-0.364 -0.201,-0.549 -0.184,-0.529 -0.349,-1.069 -0.5,-1.615 -0.054,-0.195 -0.11,-0.39 -0.161,-0.587 -0.15,-0.595 -0.28,-1.199 -0.391,-1.811 -0.032,-0.177 -0.062,-0.355 -0.091,-0.533 -0.105,-0.651 -0.192,-1.31 -0.252,-1.978 -0.011,-0.12 -0.017,-0.242 -0.026,-0.362 -0.056,-0.731 -0.093,-1.468 -0.093,-2.217 0,-2.648 0.883,-6.179 1.766,-8.828 0.219,-0.656 0.383,-1.367 0.466,-2.105 0.541,-1.246 1.174,-2.437 1.891,-3.566 0.446,-0.424 0.841,-0.892 1.174,-1.391 5.297,-7.062 13.241,-10.593 21.186,-10.593 7.945,0 15.89,3.531 21.186,10.593 0.347,0.521 0.737,0.956 1.146,1.347 0.809,1.269 1.518,2.613 2.103,4.03 0.053,0.543 0.135,1.098 0.281,1.685 0.883,3.531 1.766,6.179 1.766,8.828 0,0.749 -0.037,1.486 -0.093,2.217 -0.009,0.121 -0.015,0.242 -0.026,0.362 -0.059,0.669 -0.147,1.327 -0.252,1.978 -0.029,0.178 -0.059,0.356 -0.091,0.533 -0.111,0.612 -0.241,1.216 -0.391,1.811 -0.05,0.197 -0.106,0.392 -0.161,0.587 -0.152,0.546 -0.316,1.086 -0.5,1.615 -0.064,0.185 -0.133,0.366 -0.201,0.549 -0.195,0.523 -0.405,1.038 -0.632,1.542 -0.053,0.118 -0.102,0.237 -0.156,0.354 -0.3,0.641 -0.623,1.267 -0.973,1.875 -0.009,0.016 -0.018,0.032 -0.027,0.048 -3.752,6.482 -10.298,11.026 -18.566,12.129 -0.846,0.212 -1.638,0.478 -2.371,0.803 -0.673,0.048 -1.352,0.08 -2.042,0.08 z m -97.103,-26.483 c 0,-13.568 2.749,-26.463 7.719,-38.163 4.815,1.685 9.546,3.706 14.16,6.047 4.405,3.015 9.057,5.795 13.955,8.294 6.372,4.379 12.407,9.392 17.99,14.971 -0.019,0.096 -0.032,0.194 -0.051,0.291 -0.8,2.616 -0.807,5.998 -0.807,8.561 0,0.658 0.018,1.313 0.048,1.965 0.023,0.549 0.062,1.093 0.104,1.637 0,0.003 0,0.006 0.001,0.009 1.44,18.508 13.857,33.5 30.923,38.625 2.544,10.302 4.234,19.808 4.234,30.15 0,8.289 -0.863,16.334 -2.495,24.064 -48.462,-5.565 -85.781,-46.435 -85.781,-96.451 z m 194.206,0 c 0,50.058 -37.383,90.955 -85.905,96.465 -1.553,-7.469 -2.371,-15.224 -2.371,-23.196 0,-10.593 1.766,-21.186 4.414,-30.897 1.362,-0.477 2.694,-1.024 4,-1.623 14.889,-6.168 25.423,-20.178 26.744,-37.138 0,-0.004 10e-4,-0.007 10e-4,-0.011 0.042,-0.543 0.081,-1.087 0.104,-1.635 0.03,-0.652 0.048,-1.306 0.048,-1.965 0,-2.563 -0.007,-5.945 -0.807,-8.561 -0.018,-0.097 -0.032,-0.195 -0.051,-0.292 5.625,-5.846 11.709,-11 18.134,-15.442 4.691,-2.43 9.243,-5.124 13.628,-8.098 4.641,-2.34 9.402,-4.339 14.248,-5.991 5.028,11.761 7.813,24.731 7.813,38.384 z"
   id="path4517"
   inkscape:connector-curvature="0" />
	</g>
</g>
<g
   id="g4523"
   transform="translate(0,-436.691)">
</g>
<g
   id="g4525"
   transform="translate(0,-436.691)">
</g>
<g
   id="g4527"
   transform="translate(0,-436.691)">
</g>
<g
   id="g4529"
   transform="translate(0,-436.691)">
</g>
<g
   id="g4531"
   transform="translate(0,-436.691)">
</g>
<g
   id="g4533"
   transform="translate(0,-436.691)">
</g>
<g
   id="g4535"
   transform="translate(0,-436.691)">
</g>
<g
   id="g4537"
   transform="translate(0,-436.691)">
</g>
<g
   id="g4539"
   transform="translate(0,-436.691)">
</g>
<g
   id="g4541"
   transform="translate(0,-436.691)">
</g>
<g
   id="g4543"
   transform="translate(0,-436.691)">
</g>
<g
   id="g4545"
   transform="translate(0,-436.691)">
</g>
<g
   id="g4547"
   transform="translate(0,-436.691)">
</g>
<g
   id="g4549"
   transform="translate(0,-436.691)">
</g>
<g
   id="g4551"
   transform="translate(0,-436.691)">
</g>
</svg>