<?xml version="1.0" encoding="UTF-8" standalone="no"?>
<!-- Generator: Adobe Illustrator 16.0.0, SVG Export Plug-In . SVG Version: 6.00 Build 0)  -->

<svg
   xmlns:dc="http://purl.org/dc/elements/1.1/"
   xmlns:cc="http://creativecommons.org/ns#"
   xmlns:rdf="http://www.w3.org/1999/02/22-rdf-syntax-ns#"
   xmlns:svg="http://www.w3.org/2000/svg"
   xmlns="http://www.w3.org/2000/svg"
   xmlns:sodipodi="http://sodipodi.sourceforge.net/DTD/sodipodi-0.dtd"
   xmlns:inkscape="http://www.inkscape.org/namespaces/inkscape"
   version="1.1"
   id="Capa_1"
   x="0px"
   y="0px"
   width="64"
   height="32"
   viewBox="0 0 64.000003 32.000001"
   xml:space="preserve"
   sodipodi:docname="eye.svg"
   inkscape:version="0.92.4 (5da689c313, 2019-01-14)"><metadata
   id="metadata4040"><rdf:RDF><cc:Work
       rdf:about=""><dc:format>image/svg+xml</dc:format><dc:type
         rdf:resource="http://purl.org/dc/dcmitype/StillImage" /></cc:Work></rdf:RDF></metadata><defs
   id="defs4038" /><sodipodi:namedview
   pagecolor="#ffffff"
   bordercolor="#666666"
   borderopacity="1"
   objecttolerance="10"
   gridtolerance="10"
   guidetolerance="10"
   inkscape:pageopacity="0"
   inkscape:pageshadow="2"
   inkscape:window-width="994"
   inkscape:window-height="725"
   id="namedview4036"
   showgrid="false"
   inkscape:zoom="3.1193929"
   inkscape:cx="44.928831"
   inkscape:cy="43.312429"
   inkscape:window-x="135"
   inkscape:window-y="65"
   inkscape:window-maximized="0"
   inkscape:current-layer="Capa_1" />
<g
   id="g4003"
   transform="matrix(0.21148452,0,0,0.22065922,9.9393887e-5,-17.388167)">
	<g
   id="g4001">
		<path
   d="m 148.185,78.801 c -88.048,0 -144.647,69.607 -147.013,72.579 -1.682,2.114 -1.54,5.14 0.334,7.076 41.827,43.37 89.258,65.365 140.992,65.365 87.583,0 155.568,-62.5 158.423,-65.167 1.083,-1.013 1.691,-2.415 1.701,-3.895 0.011,-1.486 -0.576,-2.896 -1.648,-3.92 C 251.237,103.045 199.829,78.801 148.185,78.801 Z m -5.698,134.28 c -47.292,0 -90.941,-19.706 -129.805,-58.573 12.746,-14.097 63.71,-64.948 135.503,-64.948 47.312,0 94.753,21.862 141.068,65.002 -16.147,13.458 -75.476,58.519 -146.766,58.519 z"
   id="path3997"
   inkscape:connector-curvature="0" />
		<path
   d="m 110.218,152.691 c 0,22.656 18.434,41.094 41.095,41.094 22.658,0 41.088,-18.438 41.088,-41.094 0,-22.656 -18.431,-41.095 -41.088,-41.095 -22.655,0.006 -41.095,18.439 -41.095,41.095 z"
   id="path3999"
   inkscape:connector-curvature="0" />
	</g>
</g>
<g
   id="g4005"
   transform="translate(-23.080944,-175.17786)">
</g>
<g
   id="g4007"
   transform="translate(-23.080944,-175.17786)">
</g>
<g
   id="g4009"
   transform="translate(-23.080944,-175.17786)">
</g>
<g
   id="g4011"
   transform="translate(-23.080944,-175.17786)">
</g>
<g
   id="g4013"
   transform="translate(-23.080944,-175.17786)">
</g>
<g
   id="g4015"
   transform="translate(-23.080944,-175.17786)">
</g>
<g
   id="g4017"
   transform="translate(-23.080944,-175.17786)">
</g>
<g
   id="g4019"
   transform="translate(-23.080944,-175.17786)">
</g>
<g
   id="g4021"
   transform="translate(-23.080944,-175.17786)">
</g>
<g
   id="g4023"
   transform="translate(-23.080944,-175.17786)">
</g>
<g
   id="g4025"
   transform="translate(-23.080944,-175.17786)">
</g>
<g
   id="g4027"
   transform="translate(-23.080944,-175.17786)">
</g>
<g
   id="g4029"
   transform="translate(-23.080944,-175.17786)">
</g>
<g
   id="g4031"
   transform="translate(-23.080944,-175.17786)">
</g>
<g
   id="g4033"
   transform="translate(-23.080944,-175.17786)">
</g>
</svg>