<?xml version="1.0" encoding="iso-8859-1"?>
<!-- Uploaded to: SVG Repo, www.svgrepo.com, Generator: SVG Repo Mixer Tools -->
<!DOCTYPE svg PUBLIC "-//W3C//DTD SVG 1.1//EN" "http://www.w3.org/Graphics/SVG/1.1/DTD/svg11.dtd">
<svg fill="#000000" version="1.1" id="Capa_1" xmlns="http://www.w3.org/2000/svg" xmlns:xlink="http://www.w3.org/1999/xlink" 
	 width="800px" height="800px" viewBox="0 0 36.635 36.635"
	 xml:space="preserve">
<g>
	<path d="M24.712,16.081l0.722-0.323c0,0,5.206-4.548,5.169-4.896c-0.037-0.348-1.188-0.759-1.766-0.994
		c-0.576-0.235-3.752-2.771-4.273-2.858c-0.281-0.047-0.708,0.055-1.13-0.136c-0.907-0.41-0.847-0.758-0.847-0.758
		s0.008-0.249,0.014-0.472c0.007-0.223,0.932,0.36,1.131,0.261c0.199-0.1,0.199-0.1,0.286-0.559c0.087-0.46,0.409-0.932,0.409-0.932
		s0.349,0,0.322-0.174c-0.023-0.174-0.137-1.093-0.137-1.093s0.025-1.182,0.033-1.49c0.007-0.308-0.381-1.728-2.194-1.654
		c-1.813,0.075-2.125,1.678-2.125,1.678s-1.528-0.41-0.97,1.379c0.195,0.623-0.182,1.248,0.087,1.578
		c0.304,0.375,1.002,0.341,0.97,0.46c-0.062,0.224-0.123,0.795-0.473,0.944c-0.348,0.149-1.863,0.249-2.745,0.509
		c-0.883,0.261-2.833,0.833-2.833,0.833s-2.322,0.136-2.548,0.149c-0.225,0.013,0,0.497,0,0.497s-3.519,1.833-4.149,2.162
		c-0.632,0.329-0.796,1.677-0.97,2.038c-0.174,0.361-0.771,0.696-0.646,0.919c0.124,0.224,0.895-0.373,0.895-0.373
		s0.148,0.273,0.323,0.273c0.174,0,0.397-1.094,0.397-1.094s0.161,0.982,0.397,1.019c0.236,0.037,0.211-0.758,0.323-1.068
		c0.111-0.311,0.174-1.119,0.646-1.317c0.473-0.199,3.604-1.019,3.604-1.019s1.768,1.79,2.028,1.715
		c0.26-0.075,0.208-2.113,0.208-2.113s2.82-0.397,3.156-0.199c0.336,0.198,1.143,2.485,0.994,4.076
		c-0.149,1.59-0.236,1.789-0.473,2.112c-0.235,0.323-1.316,1.192-1.019,2.857c0.297,1.665,0.748,2.861,0.787,3.396
		c0.097,1.324-2.502,9.178-2.502,9.178s0.208,1.375,0.397,1.64c0.19,0.266,0.473,0,0.473,0l0.05-0.348l0.829,0.062l0.016,0.907
		h0.397L18,33.798l0.412,0.148l0.21,0.622l6.461,0.273l0.223,0.597c0,0,0.556,1.268,1.367,1.193
		c0.812-0.075,0.473-2.038,0.473-2.038s-4.207-12.026-4.398-12.574s1.094-1.564,1.269-5.02
		C24.29,16.793,24.712,16.081,24.712,16.081z M24.612,9.918c0.423-0.075,3.007,1.441,3.007,1.441s-1.788,2.721-2.211,2.907
		c-0.423,0.187-1.168,0.249-1.168,0.249S24.737,10.65,24.612,9.918z"/>
</g>
</svg>