<?xml version="1.0" encoding="UTF-8" standalone="no"?>
<!-- Generator: Adobe Illustrator 19.0.0, SVG Export Plug-In . SVG Version: 6.00 Build 0)  -->

<svg
   xmlns:dc="http://purl.org/dc/elements/1.1/"
   xmlns:cc="http://creativecommons.org/ns#"
   xmlns:rdf="http://www.w3.org/1999/02/22-rdf-syntax-ns#"
   xmlns:svg="http://www.w3.org/2000/svg"
   xmlns="http://www.w3.org/2000/svg"
   xmlns:sodipodi="http://sodipodi.sourceforge.net/DTD/sodipodi-0.dtd"
   xmlns:inkscape="http://www.inkscape.org/namespaces/inkscape"
   version="1.1"
   id="Layer_1"
   x="0px"
   y="0px"
   viewBox="0 0 32 32"
   xml:space="preserve"
   sodipodi:docname="heal.svg"
   width="32"
   height="32"
   inkscape:version="0.92.4 (5da689c313, 2019-01-14)"><metadata
   id="metadata4282"><rdf:RDF><cc:Work
       rdf:about=""><dc:format>image/svg+xml</dc:format><dc:type
         rdf:resource="http://purl.org/dc/dcmitype/StillImage" /></cc:Work></rdf:RDF></metadata><defs
   id="defs4280" /><sodipodi:namedview
   pagecolor="#ffffff"
   bordercolor="#666666"
   borderopacity="1"
   objecttolerance="10"
   gridtolerance="10"
   guidetolerance="10"
   inkscape:pageopacity="0"
   inkscape:pageshadow="2"
   inkscape:window-width="993"
   inkscape:window-height="760"
   id="namedview4278"
   showgrid="false"
   inkscape:zoom="4.593609"
   inkscape:cx="39.917323"
   inkscape:cy="54.379949"
   inkscape:window-x="76"
   inkscape:window-y="87"
   inkscape:window-maximized="0"
   inkscape:current-layer="Layer_1" />
<g
   id="g4245"
   transform="scale(0.11010753)">
	<g
   id="g4243">
		<circle
   style="fill:#f9ba48"
   cx="70.313004"
   cy="112.5"
   r="28.125"
   id="circle4163" />
		<path
   style="fill:#333333"
   d="M 225,0 C 188.812,0 159.375,29.438 159.375,65.625 V 225 c 0,36.188 29.438,65.625 65.625,65.625 36.187,0 65.625,-29.438 65.625,-65.625 V 65.625 C 290.625,29.438 261.188,0 225,0 Z m 33.117,20.259 c 0.577,1.669 2.039,2.855 3.844,3.07 3.295,2.883 6.248,6.136 8.798,9.708 -2.034,0.511 -3.572,2.269 -3.572,4.462 0,2.588 2.1,4.688 4.688,4.688 1.378,0 2.583,-0.614 3.441,-1.561 1.781,3.567 3.183,7.345 4.177,11.292 -1.716,0.694 -2.93,2.367 -2.93,4.331 0,2.503 1.978,4.509 4.448,4.641 0.131,1.566 0.239,3.136 0.239,4.734 V 89.062 H 168.75 V 65.625 c 0,-1.598 0.108,-3.169 0.239,-4.734 2.47,-0.131 4.448,-2.137 4.448,-4.641 0,-1.964 -1.214,-3.638 -2.93,-4.331 0.994,-3.947 2.395,-7.725 4.177,-11.292 0.858,0.947 2.063,1.561 3.441,1.561 2.587,0 4.688,-2.1 4.688,-4.688 0,-2.194 -1.537,-3.952 -3.577,-4.462 2.55,-3.572 5.503,-6.825 8.798,-9.708 1.805,-0.216 3.272,-1.402 3.844,-3.07 9.31,-6.811 20.733,-10.885 33.122,-10.885 12.389,0 23.813,4.074 33.117,10.884 z m 23.133,96.929 v 56.25 h -112.5 v -56.25 h 98.438 v -9.375 H 168.75 v -9.375 h 112.5 v 9.375 h -4.688 v 9.375 z m 0,65.625 v 9.375 h -112.5 v -9.375 z m -89.367,87.553 c -0.577,-1.669 -2.039,-2.855 -3.844,-3.07 -3.295,-2.883 -6.248,-6.136 -8.798,-9.708 2.034,-0.511 3.572,-2.269 3.572,-4.463 0,-2.587 -2.1,-4.688 -4.688,-4.688 -1.378,0 -2.583,0.619 -3.441,1.561 -1.781,-3.567 -3.183,-7.345 -4.177,-11.292 1.716,-0.694 2.93,-2.367 2.93,-4.331 0,-2.503 -1.978,-4.509 -4.448,-4.641 -0.131,-1.566 -0.239,-3.136 -0.239,-4.734 v -23.438 h 112.5 V 225 c 0,1.598 -0.108,3.169 -0.239,4.734 -2.47,0.131 -4.448,2.137 -4.448,4.641 0,1.964 1.214,3.638 2.93,4.331 -0.994,3.947 -2.395,7.725 -4.177,11.292 -0.858,-0.942 -2.063,-1.561 -3.441,-1.561 -2.587,0 -4.688,2.1 -4.688,4.688 0,2.194 1.538,3.952 3.577,4.462 -2.55,3.572 -5.503,6.825 -8.798,9.708 -1.805,0.216 -3.272,1.402 -3.844,3.07 -9.309,6.811 -20.733,10.884 -33.122,10.884 -12.389,10e-4 -23.812,-4.072 -33.117,-10.883 z"
   id="path4165"
   inkscape:connector-curvature="0" />
		<circle
   style="fill:#333333"
   cx="178.125"
   cy="75"
   r="4.6880002"
   id="circle4167" />
		<circle
   style="fill:#333333"
   cx="196.875"
   cy="75"
   r="4.6880002"
   id="circle4169" />
		<circle
   style="fill:#333333"
   cx="215.625"
   cy="75"
   r="4.6880002"
   id="circle4171" />
		<circle
   style="fill:#333333"
   cx="234.375"
   cy="75"
   r="4.6880002"
   id="circle4173" />
		<circle
   style="fill:#333333"
   cx="253.125"
   cy="75"
   r="4.6880002"
   id="circle4175" />
		<circle
   style="fill:#333333"
   cx="271.875"
   cy="75"
   r="4.6880002"
   id="circle4177" />
		<circle
   style="fill:#333333"
   cx="187.5"
   cy="56.25"
   r="4.6880002"
   id="circle4179" />
		<circle
   style="fill:#333333"
   cx="206.25"
   cy="56.25"
   r="4.6880002"
   id="circle4181" />
		<circle
   style="fill:#333333"
   cx="225"
   cy="56.25"
   r="4.6880002"
   id="circle4183" />
		<circle
   style="fill:#333333"
   cx="243.75"
   cy="56.25"
   r="4.6880002"
   id="circle4185" />
		<circle
   style="fill:#333333"
   cx="262.5"
   cy="56.25"
   r="4.6880002"
   id="circle4187" />
		<circle
   style="fill:#333333"
   cx="196.875"
   cy="37.5"
   r="4.6880002"
   id="circle4189" />
		<circle
   style="fill:#333333"
   cx="215.625"
   cy="37.5"
   r="4.6880002"
   id="circle4191" />
		<circle
   style="fill:#333333"
   cx="234.375"
   cy="37.5"
   r="4.6880002"
   id="circle4193" />
		<circle
   style="fill:#333333"
   cx="253.125"
   cy="37.5"
   r="4.6880002"
   id="circle4195" />
		<circle
   style="fill:#333333"
   cx="206.25"
   cy="18.75"
   r="4.6880002"
   id="circle4197" />
		<circle
   style="fill:#333333"
   cx="225"
   cy="18.75"
   r="4.6880002"
   id="circle4199" />
		<circle
   style="fill:#333333"
   cx="243.75"
   cy="18.75"
   r="4.6880002"
   id="circle4201" />
		<circle
   style="fill:#333333"
   cx="178.125"
   cy="215.625"
   r="4.6880002"
   id="circle4203" />
		<circle
   style="fill:#333333"
   cx="196.875"
   cy="215.625"
   r="4.6880002"
   id="circle4205" />
		<circle
   style="fill:#333333"
   cx="215.625"
   cy="215.625"
   r="4.6880002"
   id="circle4207" />
		<circle
   style="fill:#333333"
   cx="234.375"
   cy="215.625"
   r="4.6880002"
   id="circle4209" />
		<circle
   style="fill:#333333"
   cx="253.125"
   cy="215.625"
   r="4.6880002"
   id="circle4211" />
		<circle
   style="fill:#333333"
   cx="271.875"
   cy="215.625"
   r="4.6880002"
   id="circle4213" />
		<circle
   style="fill:#333333"
   cx="187.5"
   cy="234.375"
   r="4.6880002"
   id="circle4215" />
		<circle
   style="fill:#333333"
   cx="206.25"
   cy="234.375"
   r="4.6880002"
   id="circle4217" />
		<circle
   style="fill:#333333"
   cx="225"
   cy="234.375"
   r="4.6880002"
   id="circle4219" />
		<circle
   style="fill:#333333"
   cx="243.75"
   cy="234.375"
   r="4.6880002"
   id="circle4221" />
		<circle
   style="fill:#333333"
   cx="262.5"
   cy="234.375"
   r="4.6880002"
   id="circle4223" />
		<circle
   style="fill:#333333"
   cx="196.875"
   cy="253.125"
   r="4.6880002"
   id="circle4225" />
		<circle
   style="fill:#333333"
   cx="215.625"
   cy="253.125"
   r="4.6880002"
   id="circle4227" />
		<circle
   style="fill:#333333"
   cx="234.375"
   cy="253.125"
   r="4.6880002"
   id="circle4229" />
		<circle
   style="fill:#333333"
   cx="253.125"
   cy="253.125"
   r="4.6880002"
   id="circle4231" />
		<circle
   style="fill:#333333"
   cx="206.25"
   cy="271.875"
   r="4.6880002"
   id="circle4233" />
		<circle
   style="fill:#333333"
   cx="225"
   cy="271.875"
   r="4.6880002"
   id="circle4235" />
		<circle
   style="fill:#333333"
   cx="243.75"
   cy="271.875"
   r="4.6880002"
   id="circle4237" />
		<path
   style="fill:#333333"
   d="M 121.852,69.858 121.768,68.991 112.5,50.456 V 0 H 28.125 V 50.456 L 18.853,68.995 0,262.5 v 28.125 h 140.625 l -0.023,-28.58 z M 20.372,150 27.689,75 h 85.242 l 7.327,75 h -12.445 v 9.375 h 13.364 l 9.614,98.438 H 9.853 l 9.605,-98.438 h 78.98 V 150 Z M 31.022,65.625 35.71,56.25 h 69.206 l 4.688,9.375 z M 37.5,9.375 h 65.625 v 37.5 H 37.5 Z M 9.37,281.25 9.356,267.187 H 131.25 v 14.063 z"
   id="path4239"
   inkscape:connector-curvature="0" />
		<polygon
   style="fill:#333333"
   points="75,117.188 84.375,117.188 84.375,107.813 75,107.813 75,98.438 65.625,98.438 65.625,107.813 56.25,107.813 56.25,117.188 65.625,117.188 65.625,126.563 75,126.563 "
   id="polygon4241" />
	</g>
</g>
<g
   id="g4247"
   transform="translate(0,-258.625)">
</g>
<g
   id="g4249"
   transform="translate(0,-258.625)">
</g>
<g
   id="g4251"
   transform="translate(0,-258.625)">
</g>
<g
   id="g4253"
   transform="translate(0,-258.625)">
</g>
<g
   id="g4255"
   transform="translate(0,-258.625)">
</g>
<g
   id="g4257"
   transform="translate(0,-258.625)">
</g>
<g
   id="g4259"
   transform="translate(0,-258.625)">
</g>
<g
   id="g4261"
   transform="translate(0,-258.625)">
</g>
<g
   id="g4263"
   transform="translate(0,-258.625)">
</g>
<g
   id="g4265"
   transform="translate(0,-258.625)">
</g>
<g
   id="g4267"
   transform="translate(0,-258.625)">
</g>
<g
   id="g4269"
   transform="translate(0,-258.625)">
</g>
<g
   id="g4271"
   transform="translate(0,-258.625)">
</g>
<g
   id="g4273"
   transform="translate(0,-258.625)">
</g>
<g
   id="g4275"
   transform="translate(0,-258.625)">
</g>
</svg>