<?xml version="1.0" encoding="UTF-8" standalone="no"?>
<!-- Generator: Adobe Illustrator 18.0.0, SVG Export Plug-In . SVG Version: 6.00 Build 0)  -->

<svg
   xmlns:dc="http://purl.org/dc/elements/1.1/"
   xmlns:cc="http://creativecommons.org/ns#"
   xmlns:rdf="http://www.w3.org/1999/02/22-rdf-syntax-ns#"
   xmlns:svg="http://www.w3.org/2000/svg"
   xmlns="http://www.w3.org/2000/svg"
   xmlns:sodipodi="http://sodipodi.sourceforge.net/DTD/sodipodi-0.dtd"
   xmlns:inkscape="http://www.inkscape.org/namespaces/inkscape"
   version="1.1"
   id="Capa_1"
   x="0px"
   y="0px"
   viewBox="0 0 32.000001 32"
   xml:space="preserve"
   sodipodi:docname="juice.svg"
   width="32"
   height="32"
   inkscape:version="0.92.4 (5da689c313, 2019-01-14)"><metadata
   id="metadata4380"><rdf:RDF><cc:Work
       rdf:about=""><dc:format>image/svg+xml</dc:format><dc:type
         rdf:resource="http://purl.org/dc/dcmitype/StillImage" /></cc:Work></rdf:RDF></metadata><defs
   id="defs4378" /><sodipodi:namedview
   pagecolor="#ffffff"
   bordercolor="#666666"
   borderopacity="1"
   objecttolerance="10"
   gridtolerance="10"
   guidetolerance="10"
   inkscape:pageopacity="0"
   inkscape:pageshadow="2"
   inkscape:window-width="894"
   inkscape:window-height="555"
   id="namedview4376"
   showgrid="false"
   inkscape:zoom="6.3803479"
   inkscape:cx="40.185605"
   inkscape:cy="21.587959"
   inkscape:window-x="43"
   inkscape:window-y="31"
   inkscape:window-maximized="0"
   inkscape:current-layer="Capa_1" />
<g
   id="g4343"
   transform="matrix(0.07646774,0,0,0.07902952,1.1022373e-5,-0.53605723)">
	<path
   d="m 191.307,296.882 c 0.371,3.881 3.636,6.787 7.457,6.787 0.238,0 0.48,-0.011 0.722,-0.035 4.124,-0.394 7.146,-4.056 6.752,-8.179 L 184.081,63.585 h 132.075 l -15.295,160.059 c -0.394,4.124 2.629,7.785 6.752,8.179 4.131,0.397 7.785,-2.629 8.179,-6.752 L 335.866,14.996 c 0.201,-2.104 -0.495,-4.194 -1.916,-5.758 -1.421,-1.563 -3.437,-2.455 -5.55,-2.455 H 171.837 c -2.113,0 -4.128,0.892 -5.55,2.455 -1.421,1.564 -2.117,3.655 -1.916,5.758 z M 320.152,21.783 317.591,48.586 H 182.649 l -2.561,-26.803 z"
   id="path4333"
   inkscape:connector-curvature="0" />
	<path
   d="m 404.015,258.914 c -9.932,-14.636 -23.426,-22.696 -37.999,-22.696 -9.765,0 -19.089,3.68 -27.135,10.469 v -15.146 c 0,-4.142 -3.358,-7.5 -7.5,-7.5 -4.142,0 -7.5,3.358 -7.5,7.5 v 15.146 c -8.047,-6.789 -17.371,-10.469 -27.136,-10.469 -14.643,0 -28.038,7.066 -37.717,19.896 -9.427,12.496 -14.619,29.854 -14.619,48.875 0,3.295 0.311,6.892 0.923,10.688 0.66,4.089 4.508,6.863 8.6,6.209 4.089,-0.66 6.869,-4.51 6.209,-8.6 -0.486,-3.008 -0.732,-5.799 -0.732,-8.297 0,-31.157 15.702,-53.771 37.335,-53.771 10.642,0 20.883,7.359 28.098,20.191 1.328,2.362 3.828,3.824 6.538,3.824 2.71,0 5.209,-1.462 6.538,-3.824 7.214,-12.832 17.456,-20.191 28.097,-20.191 20.307,0 37.462,26.908 37.462,58.759 0,11.374 -5.108,24.856 -15.181,40.071 -3.119,4.71 -6.82,9.021 -11,12.815 -3.068,2.783 -3.298,7.526 -0.515,10.594 1.48,1.632 3.514,2.46 5.557,2.46 1.797,0 3.601,-0.643 5.037,-1.946 5.104,-4.631 9.622,-9.894 13.428,-15.644 11.728,-17.713 17.674,-33.981 17.674,-48.352 0.001,-19.182 -5.136,-37.317 -14.462,-51.061 z"
   id="path4335"
   inkscape:connector-curvature="0" />
	<path
   d="M 351.004,354.458 176.851,312.319 c -14.023,-3.393 -28.854,-0.604 -40.688,7.652 -8.388,5.853 -14.703,14.073 -18.268,23.466 L 81.916,313.025 c -3.165,-2.674 -7.897,-2.277 -10.57,0.886 -2.674,3.164 -2.277,7.896 0.886,10.57 L 98.5,346.684 8.2,338.227 c -4.125,-0.387 -7.78,2.644 -8.167,6.768 -0.386,4.124 2.644,7.78 6.768,8.167 l 83.343,7.805 -51.797,20.879 c -3.841,1.548 -5.701,5.918 -4.152,9.76 1.178,2.923 3.989,4.698 6.958,4.698 0.933,0 1.883,-0.175 2.801,-0.546 l 71.005,-28.621 c 1.199,10.259 5.519,20.012 12.54,27.831 9.557,10.644 23.205,16.727 37.499,16.727 0.124,0 0.25,0 0.374,-10e-4 l 179.174,-1.332 c 14.295,-0.106 26.312,-10.895 27.953,-25.097 1.641,-14.2 -7.6,-27.445 -21.495,-30.807 z m 6.595,29.087 c -0.773,6.688 -6.432,11.768 -13.163,11.818 l -179.174,1.332 c -10.135,0.084 -19.83,-4.207 -26.6,-11.747 -6.771,-7.541 -9.987,-17.64 -8.824,-27.708 1.163,-10.067 6.596,-19.167 14.908,-24.966 5.993,-4.181 13.08,-6.366 20.261,-6.366 2.777,0 5.569,0.327 8.317,0.992 l 174.153,42.139 c 6.543,1.581 10.894,7.819 10.122,14.506 z"
   id="path4337"
   inkscape:connector-curvature="0" />
	<path
   d="m 225.963,95.278 c -11.579,0 -20.999,9.42 -20.999,21 0,11.58 9.42,20.999 20.999,20.999 11.579,0 21,-9.42 21,-20.999 0,-11.579 -9.421,-21 -21,-21 z m 0,26.999 c -3.308,0 -5.999,-2.691 -5.999,-5.999 0,-3.308 2.691,-6 5.999,-6 3.308,0 6,2.691 6,6 0,3.309 -2.692,5.999 -6,5.999 z"
   id="path4339"
   inkscape:connector-curvature="0" />
	<path
   d="m 261.962,207.774 c 13.233,0 23.999,-10.766 23.999,-23.999 0,-4.142 -3.358,-7.5 -7.5,-7.5 -4.142,0 -7.5,3.358 -7.5,7.5 0,4.962 -4.037,8.999 -8.999,8.999 -4.962,0 -9,-4.037 -9,-8.999 0,-4.962 4.037,-9 9,-9 4.142,0 7.5,-3.358 7.5,-7.5 0,-4.142 -3.358,-7.5 -7.5,-7.5 -13.233,0 -24,10.766 -24,24 0,13.232 10.766,23.999 24,23.999 z"
   id="path4341"
   inkscape:connector-curvature="0" />
</g>
<g
   id="g4345"
   transform="translate(1.4414409e-4,-379.695)">
</g>
<g
   id="g4347"
   transform="translate(1.4414409e-4,-379.695)">
</g>
<g
   id="g4349"
   transform="translate(1.4414409e-4,-379.695)">
</g>
<g
   id="g4351"
   transform="translate(1.4414409e-4,-379.695)">
</g>
<g
   id="g4353"
   transform="translate(1.4414409e-4,-379.695)">
</g>
<g
   id="g4355"
   transform="translate(1.4414409e-4,-379.695)">
</g>
<g
   id="g4357"
   transform="translate(1.4414409e-4,-379.695)">
</g>
<g
   id="g4359"
   transform="translate(1.4414409e-4,-379.695)">
</g>
<g
   id="g4361"
   transform="translate(1.4414409e-4,-379.695)">
</g>
<g
   id="g4363"
   transform="translate(1.4414409e-4,-379.695)">
</g>
<g
   id="g4365"
   transform="translate(1.4414409e-4,-379.695)">
</g>
<g
   id="g4367"
   transform="translate(1.4414409e-4,-379.695)">
</g>
<g
   id="g4369"
   transform="translate(1.4414409e-4,-379.695)">
</g>
<g
   id="g4371"
   transform="translate(1.4414409e-4,-379.695)">
</g>
<g
   id="g4373"
   transform="translate(1.4414409e-4,-379.695)">
</g>
</svg>