<?xml version="1.0" encoding="UTF-8" standalone="no"?>
<!-- Generator: Adobe Illustrator 19.0.0, SVG Export Plug-In . SVG Version: 6.00 Build 0)  -->

<svg
   xmlns:dc="http://purl.org/dc/elements/1.1/"
   xmlns:cc="http://creativecommons.org/ns#"
   xmlns:rdf="http://www.w3.org/1999/02/22-rdf-syntax-ns#"
   xmlns:svg="http://www.w3.org/2000/svg"
   xmlns="http://www.w3.org/2000/svg"
   xmlns:sodipodi="http://sodipodi.sourceforge.net/DTD/sodipodi-0.dtd"
   xmlns:inkscape="http://www.inkscape.org/namespaces/inkscape"
   version="1.1"
   id="Layer_1"
   x="0px"
   y="0px"
   viewBox="0 0 32 32"
   xml:space="preserve"
   sodipodi:docname="sun.svg"
   width="32"
   height="32"
   inkscape:version="0.92.4 (5da689c313, 2019-01-14)"><metadata
   id="metadata3899"><rdf:RDF><cc:Work
       rdf:about=""><dc:format>image/svg+xml</dc:format><dc:type
         rdf:resource="http://purl.org/dc/dcmitype/StillImage" /></cc:Work></rdf:RDF></metadata><defs
   id="defs3897" /><sodipodi:namedview
   pagecolor="#ffffff"
   bordercolor="#666666"
   borderopacity="1"
   objecttolerance="10"
   gridtolerance="10"
   guidetolerance="10"
   inkscape:pageopacity="0"
   inkscape:pageshadow="2"
   inkscape:window-width="1099"
   inkscape:window-height="810"
   id="namedview3895"
   showgrid="false"
   inkscape:zoom="6.4988486"
   inkscape:cx="28.783576"
   inkscape:cy="27.195015"
   inkscape:window-x="170"
   inkscape:window-y="143"
   inkscape:window-maximized="0"
   inkscape:current-layer="Layer_1" />
<g
   id="g3862"
   transform="matrix(0.11014998,0,0,0.11022662,0,-0.01113289)">
	<g
   id="g3860">
		<circle
   style="fill:#f9ba48"
   cx="145.25101"
   cy="145.362"
   r="32.799999"
   id="circle3852" />
		<path
   style="fill:#333333"
   d="m 271.305,72.959 c 6.007,-5.159 9.831,-12.792 9.831,-21.315 0,-15.505 -12.609,-28.114 -28.114,-28.114 -7.455,0 -14.226,2.938 -19.263,7.689 C 207.777,11.136 176.524,0.101 145.252,0.101 c -30.874,0 -60.22,9.587 -85.092,27.617 -3.786,-2.629 -8.364,-4.189 -13.307,-4.189 -12.918,0 -23.428,10.51 -23.428,23.428 0,4.906 1.528,9.451 4.114,13.218 C 9.559,85.025 0,114.324 0,145.156 c 0,43.717 19.057,84.033 52.489,111.744 -0.562,1.781 -0.951,3.641 -0.951,5.604 0,10.337 8.406,18.743 18.743,18.743 4.84,0 9.217,-1.893 12.544,-4.915 19.572,9.329 40.568,14.08 62.432,14.08 80.097,0 145.256,-65.159 145.256,-145.256 -0.002,-25.378 -6.651,-50.324 -19.208,-72.197 z M 253.021,32.906 c 10.337,0 18.743,8.406 18.743,18.743 0,10.337 -8.406,18.743 -18.743,18.743 -10.337,0 -18.743,-8.406 -18.743,-18.743 0,-10.337 8.407,-18.743 18.743,-18.743 z m -206.169,0 c 7.75,0 14.057,6.307 14.057,14.057 0,7.75 -6.307,14.057 -14.057,14.057 -7.75,0 -14.057,-6.307 -14.057,-14.057 0,-7.75 6.307,-14.057 14.057,-14.057 z M 70.28,271.875 c -5.168,0 -9.371,-4.203 -9.371,-9.371 0,-5.168 4.203,-9.371 9.371,-9.371 5.168,0 9.371,4.203 9.371,9.371 0,5.168 -4.202,9.371 -9.371,9.371 z m 74.976,9.165 c -20.036,0 -39.285,-4.283 -57.268,-12.665 0.619,-1.86 1.036,-3.809 1.036,-5.871 0,-10.337 -8.406,-18.743 -18.743,-18.743 -4.962,0 -9.451,1.973 -12.806,5.131 C 26.807,222.994 9.371,185.626 9.371,145.156 c 0,-28.414 8.697,-55.413 25.026,-78.429 3.617,2.287 7.867,3.664 12.454,3.664 12.918,0 23.428,-10.51 23.428,-23.428 0,-4.545 -1.359,-8.758 -3.608,-12.356 C 89.72,18.212 116.779,9.478 145.25,9.478 c 29.234,0 58.444,10.435 82.81,29.29 -2.001,3.866 -3.153,8.237 -3.153,12.881 0,15.505 12.609,28.114 28.114,28.114 3.622,0 7.071,-0.712 10.252,-1.963 11.677,20.411 17.866,43.68 17.866,67.357 10e-4,74.923 -60.96,135.883 -135.883,135.883 z"
   id="path3854"
   inkscape:connector-curvature="0" />
		<path
   style="fill:#333333"
   d="m 145.251,32.906 c -62.005,0 -112.456,50.451 -112.456,112.456 0,62.005 50.451,112.456 112.456,112.456 15.585,0 31.328,-3.744 46.889,-11.124 3.439,3.913 8.42,6.438 14.024,6.438 10.337,0 18.743,-8.406 18.743,-18.743 0,-3.374 -0.965,-6.499 -2.535,-9.24 23.124,-21.554 35.335,-49.031 35.335,-79.788 0,-62.004 -50.451,-112.455 -112.456,-112.455 z m 60.914,210.855 c -5.168,0 -9.371,-4.203 -9.371,-9.371 0,-5.168 4.203,-9.371 9.371,-9.371 5.168,0 9.371,4.203 9.371,9.371 0,5.168 -4.203,9.371 -9.371,9.371 z m 9.685,-25.34 c -2.835,-1.724 -6.129,-2.774 -9.685,-2.774 -10.337,0 -18.743,8.406 -18.743,18.743 0,1.359 0.164,2.676 0.44,3.955 -14.216,6.696 -28.517,10.102 -42.611,10.102 -56.842,0 -103.085,-46.243 -103.085,-103.085 0,-56.842 46.243,-103.085 103.085,-103.085 56.842,0 103.085,46.243 103.085,103.085 -0.001,28.133 -11.227,53.29 -32.486,73.059 z"
   id="path3856"
   inkscape:connector-curvature="0" />
		<path
   style="fill:#333333"
   d="m 145.251,65.706 c -43.923,0 -79.656,35.733 -79.656,79.656 0,12.225 2.287,23.391 6.733,33.334 -4.189,4.911 -6.733,11.264 -6.733,18.209 0,15.505 12.609,28.114 28.114,28.114 7.764,0 14.802,-3.163 19.891,-8.27 11.635,5.604 21.784,8.27 31.652,8.27 43.923,0 79.656,-35.733 79.656,-79.656 0,-43.923 -35.734,-79.657 -79.657,-79.657 z M 93.709,215.647 c -10.337,0 -18.743,-8.406 -18.743,-18.743 0,-10.337 8.406,-18.743 18.743,-18.743 10.337,0 18.743,8.406 18.743,18.743 0,10.337 -8.407,18.743 -18.743,18.743 z m 51.542,0 c -8.036,0 -16.461,-2.132 -26.193,-6.663 1.752,-3.664 2.765,-7.75 2.765,-12.08 0,-15.505 -12.609,-28.114 -28.114,-28.114 -5.046,0 -9.774,1.354 -13.874,3.692 -3.233,-8.139 -4.868,-17.225 -4.868,-27.121 0,-38.755 31.53,-70.285 70.285,-70.285 38.755,0 70.285,31.53 70.285,70.285 0,38.755 -31.526,70.286 -70.286,70.286 z"
   id="path3858"
   inkscape:connector-curvature="0" />
	</g>
</g>
<g
   id="g3864"
   transform="translate(0,-258.412)">
</g>
<g
   id="g3866"
   transform="translate(0,-258.412)">
</g>
<g
   id="g3868"
   transform="translate(0,-258.412)">
</g>
<g
   id="g3870"
   transform="translate(0,-258.412)">
</g>
<g
   id="g3872"
   transform="translate(0,-258.412)">
</g>
<g
   id="g3874"
   transform="translate(0,-258.412)">
</g>
<g
   id="g3876"
   transform="translate(0,-258.412)">
</g>
<g
   id="g3878"
   transform="translate(0,-258.412)">
</g>
<g
   id="g3880"
   transform="translate(0,-258.412)">
</g>
<g
   id="g3882"
   transform="translate(0,-258.412)">
</g>
<g
   id="g3884"
   transform="translate(0,-258.412)">
</g>
<g
   id="g3886"
   transform="translate(0,-258.412)">
</g>
<g
   id="g3888"
   transform="translate(0,-258.412)">
</g>
<g
   id="g3890"
   transform="translate(0,-258.412)">
</g>
<g
   id="g3892"
   transform="translate(0,-258.412)">
</g>
</svg>